<?xml version="1.0" encoding="UTF-8"?>
<!DOCTYPE svg PUBLIC "-//W3C//DTD SVG 1.1//EN" "http://www.w3.org/Graphics/SVG/1.1/DTD/svg11.dtd">
<!-- Creator: CorelDRAW -->
<svg xmlns="http://www.w3.org/2000/svg" xml:space="preserve" width="51.0678mm" height="41.463mm" version="1.1" style="shape-rendering:geometricPrecision; text-rendering:geometricPrecision; image-rendering:optimizeQuality; fill-rule:evenodd; clip-rule:evenodd"
viewBox="0 0 2938.85 2386.12"
 xmlns:xlink="http://www.w3.org/1999/xlink"
 xmlns:xodm="http://www.corel.com/coreldraw/odm/2003">
 <defs>
  <style type="text/css">
   <![CDATA[
    .fil1 {fill:#373435;fill-rule:nonzero}
    .fil0 {fill:#5CA47A;fill-rule:nonzero}
    .fil2 {fill:#201E1E;fill-rule:nonzero}
   ]]>
  </style>
 </defs>
 <g id="Layer_x0020_1">
  <metadata id="CorelCorpID_0Corel-Layer"/>
  <g id="_2622780594096">
   <polygon class="fil0" points="1633.81,376.85 1633.81,1665.78 1319.84,1665.78 1319.84,376.85 "/>
   <path class="fil1" d="M-0 660.24c0,-127.3 27.54,-240.83 82.62,-340.59 55.08,-99.77 131.89,-177.49 230.43,-233.18 98.54,-55.7 210.23,-83.54 335.09,-83.54 153.01,0 283.98,40.39 392.92,121.18 108.94,80.79 181.77,190.95 218.49,330.49l-345.18 0c-25.71,-53.86 -62.12,-94.86 -109.25,-123.02 -47.13,-28.15 -100.68,-42.23 -160.66,-42.23 -96.7,0 -175.04,33.66 -235.02,100.99 -59.98,67.33 -89.96,157.29 -89.96,269.91 0,112.61 29.99,202.58 89.96,269.9 59.98,67.33 138.32,100.99 235.02,100.99 59.98,0 113.53,-14.08 160.66,-42.23 47.13,-28.15 83.54,-69.16 109.25,-123.01l345.18 0c-36.72,139.54 -109.55,249.4 -218.49,329.57 -108.94,80.18 -239.91,120.26 -392.92,120.26 -124.85,0 -236.55,-27.85 -335.09,-83.54 -98.53,-55.7 -175.34,-133.11 -230.43,-232.26 -55.08,-99.14 -82.62,-212.37 -82.62,-339.67z"/>
   <path class="fil2" d="M1467.35 2386.12c-127.3,0 -240.83,-27.54 -340.59,-82.62 -99.77,-55.08 -177.49,-131.89 -233.18,-230.43 -55.7,-98.54 -83.54,-210.23 -83.54,-335.09 0,-153.01 40.39,-283.98 121.18,-392.92 80.79,-108.94 190.95,-181.77 330.49,-218.49l0 345.18c-53.86,25.71 -94.86,62.12 -123.02,109.25 -28.15,47.13 -42.23,100.68 -42.23,160.66 0,96.7 33.66,175.04 100.99,235.02 67.33,59.98 157.29,89.96 269.91,89.96 112.61,0 202.58,-29.99 269.9,-89.96 67.33,-59.98 100.99,-138.32 100.99,-235.02 0,-59.98 -14.08,-113.53 -42.23,-160.66 -28.15,-47.13 -69.16,-83.54 -123.01,-109.25l0 -345.18c139.54,36.72 249.4,109.55 329.57,218.49 80.18,108.94 120.26,239.91 120.26,392.92 0,124.85 -27.85,236.55 -83.54,335.09 -55.7,98.53 -133.11,175.34 -232.26,230.43 -99.14,55.08 -212.37,82.62 -339.67,82.62z"/>
   <polygon class="fil0" points="2468.92,812.63 1180.54,817.48 1179.27,503.8 2467.65,498.96 "/>
   <path class="fil0" d="M2938.85 657.32c0,-127.3 -27.54,-240.83 -82.62,-340.59 -55.08,-99.77 -131.89,-177.49 -230.43,-233.18 -98.54,-55.7 -210.23,-83.54 -335.09,-83.54 -153.01,0 -283.98,40.39 -392.92,121.18 -108.94,80.79 -181.77,190.95 -218.49,330.49l345.18 0c25.71,-53.86 62.12,-94.86 109.25,-123.02 47.13,-28.15 100.68,-42.23 160.66,-42.23 96.7,0 175.04,33.66 235.02,100.99 59.98,67.33 89.96,157.29 89.96,269.91 0,112.61 -29.99,202.58 -89.96,269.9 -59.98,67.33 -138.32,100.99 -235.02,100.99 -59.98,0 -113.53,-14.08 -160.66,-42.23 -47.13,-28.15 -83.54,-69.16 -109.25,-123.01l-345.18 0c36.72,139.54 109.55,249.4 218.49,329.57 108.94,80.18 239.91,120.26 392.92,120.26 124.85,0 236.55,-27.85 335.09,-83.54 98.53,-55.7 175.34,-133.11 230.43,-232.26 55.08,-99.14 82.62,-212.37 82.62,-339.67z"/>
  </g>
 </g>
</svg>
