<?xml version="1.0" encoding="iso-8859-1"?>
<!-- Uploaded to: SVG Repo, www.svgrepo.com, Generator: SVG Repo Mixer Tools -->
<svg fill="#000000" height="800px" width="800px" version="1.1" id="Layer_1" xmlns="http://www.w3.org/2000/svg" xmlns:xlink="http://www.w3.org/1999/xlink" 
	 viewBox="0 0 511.999 511.999" xml:space="preserve">
<g>
	<g>
		<path d="M438.129,477.309l-50.852-38.863c35.634-39.396,57.367-91.591,57.367-148.77c0-56.844-21.485-108.758-56.748-148.073
			L350.41,179.09c25.713,29.666,41.289,68.341,41.289,110.586c0,93.216-75.837,169.053-169.053,169.053
			S53.592,382.893,53.592,289.676s75.838-169.052,169.053-169.052c42.245,0,80.921,15.576,110.586,41.286l37.486-37.486
			c-39.315-35.263-91.228-56.748-148.073-56.748c-122.411,0-222.001,99.59-222.001,222.001c0,57.178,21.733,109.374,57.367,148.77
			L7.158,477.309c-7.996,6.11-9.524,17.547-3.414,25.542c3.587,4.693,9.008,7.159,14.491,7.159c3.858,0,7.748-1.221,11.051-3.745
			l52.292-39.963c1.136-0.869,2.126-1.854,2.998-2.912c37.927,30.207,85.923,48.287,138.066,48.287s100.139-18.08,138.066-48.287
			c0.872,1.058,1.862,2.043,2.998,2.912l52.292,39.963c3.303,2.524,7.192,3.745,11.051,3.745c5.484,0,10.905-2.466,14.491-7.159
			C447.653,494.855,446.125,483.42,438.129,477.309z"/>
	</g>
</g>
<g>
	<g>
		<path d="M333.181,196.321l-30.52,30.52c13.631,17.321,21.794,39.136,21.794,62.836c0,56.139-45.672,101.81-101.81,101.81
			c-56.138,0-101.81-45.672-101.81-101.81s45.672-101.81,101.81-101.81c23.7,0,45.516,8.162,62.836,21.794L316,179.14
			c-25.222-21.336-57.81-34.221-93.355-34.221c-79.82,0-144.757,64.937-144.757,144.757s64.937,144.757,144.757,144.757
			s144.757-64.937,144.757-144.757C367.402,254.131,354.516,221.544,333.181,196.321z"/>
	</g>
</g>
<g>
	<g>
		<path d="M285.336,244.167l-25.295,25.295c3.265,6.016,5.122,12.904,5.122,20.216c0,23.445-19.074,42.518-42.518,42.518
			c-23.445,0-42.518-19.074-42.518-42.518s19.074-42.518,42.518-42.518c7.313,0,14.2,1.856,20.216,5.122l25.295-25.295
			c-12.791-9.311-28.515-14.823-45.51-14.823c-42.742,0-77.514,34.773-77.514,77.514c0,42.742,34.773,77.514,77.514,77.514
			c42.742,0,77.514-34.773,77.514-77.514C300.159,272.683,294.648,256.958,285.336,244.167z"/>
	</g>
</g>
<g>
	<g>
		<path d="M493.779,35.968h-17.424V18.544c0-10.063-8.159-18.222-18.222-18.222c-10.063,0-18.222,8.159-18.222,18.222V54.19
			c0,0.335,0.033,0.661,0.05,0.991l-1.925,1.925v-0.244c0-10.063-8.159-18.222-18.222-18.222c-10.063,0-18.222,8.159-18.222,18.222
			v35.646c0,0.335,0.033,0.661,0.05,0.991l-30.922,30.922c6.033,5.412,11.769,11.147,17.181,17.181l30.922-30.922
			c0.33,0.018,0.657,0.05,0.991,0.05h35.646c10.063,0,18.222-8.159,18.222-18.222c0-10.063-8.159-18.222-18.222-18.222h-0.244
			l1.925-1.925c0.33,0.018,0.657,0.05,0.991,0.05h35.646c10.063,0,18.222-8.159,18.222-18.222
			C511.999,44.126,503.842,35.968,493.779,35.968z"/>
	</g>
</g>
</svg>