<?xml version="1.0" encoding="utf-8"?><!-- Uploaded to: SVG Repo, www.svgrepo.com, Generator: SVG Repo Mixer Tools -->
<svg fill="#000000" width="800px" height="800px" viewBox="0 0 24 24" id="mobile-data-circle" data-name="Flat Color" xmlns="http://www.w3.org/2000/svg" class="icon flat-color"><circle id="primary" cx="12" cy="12" r="10" style="fill: rgb(0, 0, 0);"></circle><path id="secondary" d="M11.71,12.29a1,1,0,0,1,0,1.42l-2,2a1,1,0,0,1-1.42,0l-2-2a1,1,0,0,1,1.42-1.42l.29.3V8a1,1,0,0,1,2,0v4.59l.29-.3A1,1,0,0,1,11.71,12.29Zm6-3-2-2a1,1,0,0,0-1.42,0l-2,2a1,1,0,0,0,1.42,1.42l.29-.3V15a1,1,0,0,0,2,0V10.41l.29.3a1,1,0,0,0,1.42,0A1,1,0,0,0,17.71,9.29Z" style="fill: rgb(44, 169, 188);"></path></svg>